<svg xmlns="http://www.w3.org/2000/svg" xmlns:xlink="http://www.w3.org/1999/xlink" version="1.1">
  <symbol id="icon-user" viewBox="0 0 55 55" fill="currentColor">
    <path d="M55,27.5C55,12.337,42.663,0,27.5,0S0,12.337,0,27.5c0,8.009,3.444,15.228,8.926,20.258l-0.026,0.023l0.892,0.752  c0.058,0.049,0.121,0.089,0.179,0.137c0.474,0.393,0.965,0.766,1.465,1.127c0.162,0.117,0.324,0.234,0.489,0.348  c0.534,0.368,1.082,0.717,1.642,1.048c0.122,0.072,0.245,0.142,0.368,0.212c0.613,0.349,1.239,0.678,1.88,0.98  c0.047,0.022,0.095,0.042,0.142,0.064c2.089,0.971,4.319,1.684,6.651,2.105c0.061,0.011,0.122,0.022,0.184,0.033  c0.724,0.125,1.456,0.225,2.197,0.292c0.09,0.008,0.18,0.013,0.271,0.021C25.998,54.961,26.744,55,27.5,55  c0.749,0,1.488-0.039,2.222-0.098c0.093-0.008,0.186-0.013,0.279-0.021c0.735-0.067,1.461-0.164,2.178-0.287  c0.062-0.011,0.125-0.022,0.187-0.034c2.297-0.412,4.495-1.109,6.557-2.055c0.076-0.035,0.153-0.068,0.229-0.104  c0.617-0.29,1.22-0.603,1.811-0.936c0.147-0.083,0.293-0.167,0.439-0.253c0.538-0.317,1.067-0.648,1.581-1  c0.185-0.126,0.366-0.259,0.549-0.391c0.439-0.316,0.87-0.642,1.289-0.983c0.093-0.075,0.193-0.14,0.284-0.217l0.915-0.764  l-0.027-0.023C51.523,42.802,55,35.55,55,27.5z M2,27.5C2,13.439,13.439,2,27.5,2S53,13.439,53,27.5  c0,7.577-3.325,14.389-8.589,19.063c-0.294-0.203-0.59-0.385-0.893-0.537l-8.467-4.233c-0.76-0.38-1.232-1.144-1.232-1.993v-2.957  c0.196-0.242,0.403-0.516,0.617-0.817c1.096-1.548,1.975-3.27,2.616-5.123c1.267-0.602,2.085-1.864,2.085-3.289v-3.545  c0-0.867-0.318-1.708-0.887-2.369v-4.667c0.052-0.52,0.236-3.448-1.883-5.864C34.524,9.065,31.541,8,27.5,8  s-7.024,1.065-8.867,3.168c-2.119,2.416-1.935,5.346-1.883,5.864v4.667c-0.568,0.661-0.887,1.502-0.887,2.369v3.545  c0,1.101,0.494,2.128,1.34,2.821c0.81,3.173,2.477,5.575,3.093,6.389v2.894c0,0.816-0.445,1.566-1.162,1.958l-7.907,4.313  c-0.252,0.137-0.502,0.297-0.752,0.476C5.276,41.792,2,35.022,2,27.5z"/>
  </symbol>
  <symbol id="icon-search" viewBox="0 0 511.999 511.999" fill="currentColor">
    <path d="M508.874,478.708L360.142,329.976c28.21-34.827,45.191-79.103,45.191-127.309c0-111.75-90.917-202.667-202.667-202.667    S0,90.917,0,202.667s90.917,202.667,202.667,202.667c48.206,0,92.482-16.982,127.309-45.191l148.732,148.732    c4.167,4.165,10.919,4.165,15.086,0l15.081-15.082C513.04,489.627,513.04,482.873,508.874,478.708z M202.667,362.667    c-88.229,0-160-71.771-160-160s71.771-160,160-160s160,71.771,160,160S290.896,362.667,202.667,362.667z"/>
  </symbol>
  <symbol id="icon-export" viewBox="0 0 551.13 551.13" fill="currentColor">
    <path d="m465.016 172.228h-51.668v34.446h34.446v310.011h-344.457v-310.011h34.446v-34.446h-51.669c-9.52 0-17.223 7.703-17.223 17.223v344.456c0 9.52 7.703 17.223 17.223 17.223h378.902c9.52 0 17.223-7.703 17.223-17.223v-344.456c0-9.52-7.703-17.223-17.223-17.223z"/>
    <path d="m258.342 65.931v244.08h34.446v-244.08l73.937 73.937 24.354-24.354-115.514-115.514-115.514 115.514 24.354 24.354z"/>
  </symbol>
  <symbol id="icon-home" viewBox="0 0 512 512" fill="none">
    <path fill-rule="evenodd" clip-rule="evenodd" d="M262.346 5.23625C258.659 2.19406 253.335 2.18637 249.639 5.21793L21.6155 192.269C14.3545 198.225 18.5663 210 27.9578 210H32.5C38.0228 210 42.5 214.477 42.5 220V501.5C42.5 507.023 46.9772 511.5 52.5 511.5H462.5C468.023 511.5 472.5 507.023 472.5 501.5V220C472.5 214.477 477.022 210 482.545 210C491.922 210 496.266 198.255 489.033 192.287L472.5 178.644L420.5 135.737L262.346 5.23625ZM319.693 455.211C319.587 460.845 324.155 465.454 329.79 465.398L410.599 464.598C416.083 464.544 420.5 460.083 420.5 454.599V312.151C420.5 306.57 415.931 302.069 410.35 302.152L330.41 303.351C324.923 303.434 320.527 307.923 320.56 313.411L321 385.5L319.693 455.211Z" fill="currentColor"/>
    <path d="M430.5 89.5C424.977 89.5 420.5 93.9772 420.5 99.5V135.737L472.5 178.644V99.5C472.5 93.9771 468.023 89.5 462.5 89.5H430.5Z" fill="currentColor"/>
    <path d="M420.5 135.737L262.346 5.23625C258.659 2.19406 253.335 2.18637 249.639 5.21793L21.6155 192.269C14.3545 198.225 18.5663 210 27.9578 210H32.5C38.0228 210 42.5 214.477 42.5 220V501.5C42.5 507.023 46.9772 511.5 52.5 511.5H462.5C468.023 511.5 472.5 507.023 472.5 501.5V220C472.5 214.477 477.022 210 482.545 210V210C491.922 210 496.266 198.255 489.033 192.287L472.5 178.644M420.5 135.737V99.5C420.5 93.9772 424.977 89.5 430.5 89.5H462.5C468.023 89.5 472.5 93.9772 472.5 99.5V178.644M420.5 135.737L472.5 178.644M321 385.5L319.693 455.211C319.587 460.845 324.155 465.454 329.79 465.398L410.599 464.598C416.083 464.544 420.5 460.083 420.5 454.599V312.151C420.5 306.57 415.931 302.069 410.35 302.152L330.41 303.351C324.923 303.434 320.527 307.923 320.56 313.411L321 385.5Z" stroke="currentColor"/>
  </symbol>
  <symbol id="icon-card" viewBox="0 0 512 380" fill="none">
    <path d="M61 280H160V330H61V280Z" fill="currentColor" stroke="currentColor"/>
    <path d="M507 73.8259H5V224.413H507V73.8259Z" fill="currentColor"/>
    <path d="M5 73.8259V40C5 20.67 20.67 5 40 5H472C491.33 5 507 20.67 507 40V73.8259M5 73.8259H507M5 73.8259V224.413M507 73.8259V224.413M507 224.413V340C507 359.33 491.33 375 472 375H40C20.67 375 5 359.33 5 340V224.413M507 224.413H5" stroke="currentColor" stroke-width="10"/>
  </symbol>
  <symbol id="icon-amazoncard" viewBox="0 0 512 380" fill="none">
    <path d="M61 280H160V330H61V280Z" fill="currentColor" stroke="currentColor"/>
    <path d="M507 73.8259H5V224.413H507V73.8259Z" fill="currentColor"/>
    <path d="M5 73.8259V40C5 20.67 20.67 5 40 5H472C491.33 5 507 20.67 507 40V73.8259M5 73.8259H507M5 73.8259V224.413M507 73.8259V224.413M507 224.413V340C507 359.33 491.33 375 472 375H40C20.67 375 5 359.33 5 340V224.413M507 224.413H5" stroke="currentColor" stroke-width="10"/>
    <path class="cardtext" d="M116.693 183C116.173 181.958 115.749 180.103 115.424 177.434C111.225 181.796 106.212 183.977 100.385 183.977C95.1764 183.977 90.8958 182.512 87.543 179.582C84.2227 176.62 82.5625 172.876 82.5625 168.352C82.5625 162.85 84.6458 158.586 88.8125 155.559C93.0117 152.499 98.9036 150.969 106.488 150.969H115.277V146.818C115.277 143.661 114.333 141.154 112.445 139.299C110.557 137.411 107.774 136.467 104.096 136.467C100.873 136.467 98.1712 137.281 95.9902 138.908C93.8092 140.536 92.7188 142.505 92.7188 144.816H83.6367C83.6367 142.18 84.5645 139.641 86.4199 137.199C88.3079 134.725 90.847 132.772 94.0371 131.34C97.2598 129.908 100.792 129.191 104.633 129.191C110.72 129.191 115.489 130.721 118.939 133.781C122.39 136.809 124.18 140.992 124.311 146.33V170.646C124.311 175.497 124.929 179.354 126.166 182.219V183H116.693ZM101.703 176.115C104.535 176.115 107.221 175.383 109.76 173.918C112.299 172.453 114.138 170.549 115.277 168.205V157.365H108.197C97.1296 157.365 91.5957 160.604 91.5957 167.082C91.5957 169.914 92.5397 172.128 94.4277 173.723C96.3158 175.318 98.7409 176.115 101.703 176.115ZM146.967 130.168L147.211 136.027C151.085 131.47 156.309 129.191 162.885 129.191C170.274 129.191 175.303 132.023 177.973 137.688C179.73 135.148 182.009 133.098 184.809 131.535C187.641 129.973 190.977 129.191 194.818 129.191C206.407 129.191 212.299 135.327 212.494 147.6V183H203.461V148.137C203.461 144.361 202.598 141.545 200.873 139.689C199.148 137.801 196.251 136.857 192.182 136.857C188.829 136.857 186.046 137.867 183.832 139.885C181.618 141.87 180.333 144.556 179.975 147.941V183H170.893V148.381C170.893 140.699 167.133 136.857 159.613 136.857C153.689 136.857 149.636 139.38 147.455 144.426V183H138.422V130.168H146.967ZM258.783 183C258.262 181.958 257.839 180.103 257.514 177.434C253.314 181.796 248.301 183.977 242.475 183.977C237.266 183.977 232.986 182.512 229.633 179.582C226.312 176.62 224.652 172.876 224.652 168.352C224.652 162.85 226.736 158.586 230.902 155.559C235.102 152.499 240.993 150.969 248.578 150.969H257.367V146.818C257.367 143.661 256.423 141.154 254.535 139.299C252.647 137.411 249.864 136.467 246.186 136.467C242.963 136.467 240.261 137.281 238.08 138.908C235.899 140.536 234.809 142.505 234.809 144.816H225.727C225.727 142.18 226.654 139.641 228.51 137.199C230.398 134.725 232.937 132.772 236.127 131.34C239.35 129.908 242.882 129.191 246.723 129.191C252.81 129.191 257.579 130.721 261.029 133.781C264.48 136.809 266.27 140.992 266.4 146.33V170.646C266.4 175.497 267.019 179.354 268.256 182.219V183H258.783ZM243.793 176.115C246.625 176.115 249.311 175.383 251.85 173.918C254.389 172.453 256.228 170.549 257.367 168.205V157.365H250.287C239.219 157.365 233.686 160.604 233.686 167.082C233.686 169.914 234.63 172.128 236.518 173.723C238.406 175.318 240.831 176.115 243.793 176.115ZM289.057 175.627H319.965V183H278.021V176.359L307.172 137.639H278.461V130.168H318.5V136.564L289.057 175.627ZM326.996 156.096C326.996 150.92 328.005 146.265 330.023 142.131C332.074 137.997 334.906 134.807 338.52 132.561C342.165 130.314 346.316 129.191 350.971 129.191C358.165 129.191 363.975 131.682 368.402 136.662C372.862 141.643 375.092 148.267 375.092 156.535V157.17C375.092 162.313 374.099 166.936 372.113 171.037C370.16 175.106 367.344 178.28 363.666 180.559C360.02 182.837 355.821 183.977 351.068 183.977C343.907 183.977 338.096 181.486 333.637 176.506C329.21 171.525 326.996 164.934 326.996 156.73V156.096ZM336.078 157.17C336.078 163.029 337.429 167.733 340.131 171.281C342.865 174.829 346.511 176.604 351.068 176.604C355.658 176.604 359.304 174.813 362.006 171.232C364.708 167.619 366.059 162.574 366.059 156.096C366.059 150.301 364.675 145.614 361.908 142.033C359.174 138.42 355.528 136.613 350.971 136.613C346.511 136.613 342.914 138.387 340.18 141.936C337.445 145.484 336.078 150.562 336.078 157.17ZM394.965 130.168L395.258 136.809C399.294 131.73 404.568 129.191 411.078 129.191C422.243 129.191 427.875 135.49 427.973 148.088V183H418.939V148.039C418.907 144.23 418.028 141.415 416.303 139.592C414.61 137.769 411.957 136.857 408.344 136.857C405.414 136.857 402.842 137.639 400.629 139.201C398.415 140.764 396.69 142.814 395.453 145.354V183H386.42V130.168H394.965Z" fill="white"/>
  </symbol>
  <symbol id="icon-bell" enable-background="new 0 0 24 24" viewBox="0 0 24 24" fill="currentColor">
    <path d="m21.379 16.913c-1.512-1.278-2.379-3.146-2.379-5.125v-2.788c0-3.519-2.614-6.432-6-6.92v-1.08c0-.553-.448-1-1-1s-1 .447-1 1v1.08c-3.387.488-6 3.401-6 6.92v2.788c0 1.979-.867 3.847-2.388 5.133-.389.333-.612.817-.612 1.329 0 .965.785 1.75 1.75 1.75h16.5c.965 0 1.75-.785 1.75-1.75 0-.512-.223-.996-.621-1.337z"/>
    <path d="m12 24c1.811 0 3.326-1.291 3.674-3h-7.348c.348 1.709 1.863 3 3.674 3z"/>
  </symbol>
  <symbol id="icon-album" viewBox="0 0 512 512" fill="currentColor">
    <path d="M496,128H16c-8.832,0-16,7.168-16,16v352c0,8.832,7.168,16,16,16h480c8.832,0,16-7.168,16-16V144  C512,135.168,504.832,128,496,128z M336,286.016c-8.832,0-16-7.168-16-16c0-21.376-17.504-33.6-32-40.032V400  c0,26.912-28.096"/>
    <path d="M448,80c0-8.832-7.168-16-16-16H80c-8.832,0-16,7.168-16,16v16h384V80z"/>
    <path d="M384,16c0-8.832-7.168-16-16-16H144c-8.832,0-16,7.168-16,16v16h256V16z"/>
  </symbol>
  <symbol id="icon-menu" viewBox="0 0 30 30" stroke="currentColor">
    <path stroke-linecap="round" stroke-miterlimit="10" stroke-width="2" d="M4 7h22M4 15h22M4 23h22"/>
  </symbol>
  <symbol id="icon-done" viewBox="0 0 375.147 375.147" fill="currentColor">
		<polygon points="344.96,44.48 119.147,270.293 30.187,181.333 0,211.52 119.147,330.667 375.147,74.667"/>
  </symbol>
</svg>