<svg width="512" height="512" viewBox="0 0 512 512" fill="none" xmlns="http://www.w3.org/2000/svg">
<path fill-rule="evenodd" clip-rule="evenodd" d="M262.346 5.23625C258.659 2.19406 253.335 2.18637 249.639 5.21793L21.6155 192.269C14.3545 198.225 18.5663 210 27.9578 210H32.5C38.0228 210 42.5 214.477 42.5 220V501.5C42.5 507.023 46.9772 511.5 52.5 511.5H462.5C468.023 511.5 472.5 507.023 472.5 501.5V220C472.5 214.477 477.022 210 482.545 210C491.922 210 496.266 198.255 489.033 192.287L472.5 178.644L420.5 135.737L262.346 5.23625ZM319.693 455.211C319.587 460.845 324.155 465.454 329.79 465.398L410.599 464.598C416.083 464.544 420.5 460.083 420.5 454.599V312.151C420.5 306.57 415.931 302.069 410.35 302.152L330.41 303.351C324.923 303.434 320.527 307.923 320.56 313.411L321 385.5L319.693 455.211Z" fill="black"/>
<path d="M430.5 89.5C424.977 89.5 420.5 93.9772 420.5 99.5V135.737L472.5 178.644V99.5C472.5 93.9771 468.023 89.5 462.5 89.5H430.5Z" fill="black"/>
<path d="M420.5 135.737L262.346 5.23625C258.659 2.19406 253.335 2.18637 249.639 5.21793L21.6155 192.269C14.3545 198.225 18.5663 210 27.9578 210H32.5C38.0228 210 42.5 214.477 42.5 220V501.5C42.5 507.023 46.9772 511.5 52.5 511.5H462.5C468.023 511.5 472.5 507.023 472.5 501.5V220C472.5 214.477 477.022 210 482.545 210V210C491.922 210 496.266 198.255 489.033 192.287L472.5 178.644M420.5 135.737V99.5C420.5 93.9772 424.977 89.5 430.5 89.5H462.5C468.023 89.5 472.5 93.9772 472.5 99.5V178.644M420.5 135.737L472.5 178.644M321 385.5L319.693 455.211C319.587 460.845 324.155 465.454 329.79 465.398L410.599 464.598C416.083 464.544 420.5 460.083 420.5 454.599V312.151C420.5 306.57 415.931 302.069 410.35 302.152L330.41 303.351C324.923 303.434 320.527 307.923 320.56 313.411L321 385.5Z" stroke="black"/>
</svg>
