<svg xmlns="http://www.w3.org/2000/svg" xmlns:xlink="http://www.w3.org/1999/xlink" version="1.1" id="Capa_1" x="0px" y="0px" viewBox="0 0 512 512" style="enable-background:new 0 0 512 512;" xml:space="preserve">
<path d="M496,128H16c-8.832,0-16,7.168-16,16v352c0,8.832,7.168,16,16,16h480c8.832,0,16-7.168,16-16V144  C512,135.168,504.832,128,496,128z M336,286.016c-8.832,0-16-7.168-16-16c0-21.376-17.504-33.6-32-40.032V400  c0,26.912-28.096"/>
<path d="M448,80c0-8.832-7.168-16-16-16H80c-8.832,0-16,7.168-16,16v16h384V80z"/>
<path d="M384,16c0-8.832-7.168-16-16-16H144c-8.832,0-16,7.168-16,16v16h256V16z"/>
<g>
</g>
<g>
</g>
<g>
</g>
<g>
</g>
<g>
</g>
<g>
</g>
<g>
</g>
<g>
</g>
<g>
</g>
<g>
</g>
<g>
</g>
<g>
</g>
<g>
</g>
<g>
</g>
<g>
</g>
</svg>